<svg width="250" height="250" viewBox="0 0 250 250" fill="none" xmlns="http://www.w3.org/2000/svg">
<circle cx="125" cy="125" r="100" fill="#A0C49D"/>
<path d="M101.19 196.64L74.31 194.24L80.23 84.32C77.4567 84.96 74.8967 85.7067 72.55 86.56L67.75 59.36C73.4033 58.1867 80.39 56.96 88.71 55.68C97.03 54.4 105.617 53.76 114.47 53.76C121.297 53.76 128.23 54.5067 135.27 56C142.31 57.3867 149.03 59.7333 155.43 63.04C161.937 66.24 167.697 70.56 172.71 76C177.83 81.44 181.83 88.1067 184.71 96C187.697 103.893 189.19 113.227 189.19 124C189.19 139.147 186.737 152.107 181.83 162.88C177.03 173.547 169.99 181.707 160.71 187.36C151.537 193.013 140.443 195.84 127.43 195.84C118.79 195.84 110.257 194.24 101.83 191.04C101.617 193.173 101.403 195.04 101.19 196.64ZM113.35 80.64C111.857 80.64 110.31 80.64 108.71 80.64C107.643 100.48 106.683 117.387 105.83 131.36C104.977 145.227 104.23 156.8 103.59 166.08C106.79 167.147 110.31 168.107 114.15 168.96C118.097 169.707 122.203 170.08 126.47 170.08C135.11 170.08 142.043 167.893 147.27 163.52C152.603 159.147 156.443 153.387 158.79 146.24C161.137 138.987 162.31 131.147 162.31 122.72C162.31 116 161.297 110.293 159.27 105.6C157.243 100.907 154.577 97.0133 151.27 93.92C148.07 90.8267 144.55 88.4267 140.71 86.72C136.87 84.9067 133.083 83.5733 129.35 82.72C125.723 81.8667 122.47 81.3333 119.59 81.12C116.71 80.8 114.63 80.64 113.35 80.64Z" fill="#F7FFE5"/>
</svg>
