<svg width="250" height="250" viewBox="0 0 250 250" fill="none" xmlns="http://www.w3.org/2000/svg">
<circle cx="125" cy="125" r="102" fill="#0A192F" stroke="#64FFDA" stroke-width="4"/>
<path d="M124 184H88.0909V67.6364H125.591C136.879 67.6364 146.538 69.9659 154.568 74.625C162.598 79.2462 168.754 85.8939 173.034 94.5682C177.314 103.205 179.455 113.545 179.455 125.591C179.455 137.712 177.295 148.148 172.977 156.898C168.659 165.61 162.371 172.314 154.114 177.011C145.856 181.67 135.818 184 124 184ZM102.182 171.5H123.091C132.712 171.5 140.686 169.644 147.011 165.932C153.337 162.22 158.053 156.936 161.159 150.08C164.265 143.223 165.818 135.061 165.818 125.591C165.818 116.197 164.284 108.11 161.216 101.33C158.148 94.5114 153.564 89.2841 147.466 85.6477C141.367 81.9735 133.773 80.1364 124.682 80.1364H102.182V171.5Z" fill="#64FFDA"/>
<path d="M88.0909 184H86.0909V186H88.0909V184ZM88.0909 67.6364V65.6364H86.0909V67.6364H88.0909ZM154.568 74.625L153.564 76.3549L153.571 76.3585L154.568 74.625ZM173.034 94.5682L171.241 95.4532L171.242 95.4563L173.034 94.5682ZM172.977 156.898L174.769 157.786L174.771 157.783L172.977 156.898ZM154.114 177.011L155.096 178.753L155.102 178.75L154.114 177.011ZM102.182 171.5H100.182V173.5H102.182V171.5ZM147.011 165.932L145.999 164.207L147.011 165.932ZM161.216 101.33L159.392 102.15L159.394 102.154L161.216 101.33ZM147.466 85.6477L146.434 87.3608L146.442 87.3655L147.466 85.6477ZM102.182 80.1364V78.1364H100.182V80.1364H102.182ZM124 182H88.0909V186H124V182ZM90.0909 184V67.6364H86.0909V184H90.0909ZM88.0909 69.6364H125.591V65.6364H88.0909V69.6364ZM125.591 69.6364C136.602 69.6364 145.899 71.9073 153.564 76.3549L155.572 72.8951C147.177 68.0245 137.155 65.6364 125.591 65.6364V69.6364ZM153.571 76.3585C161.242 80.773 167.127 87.1179 171.241 95.4532L174.828 93.6832C170.38 84.67 163.955 77.7194 155.566 72.8915L153.571 76.3585ZM171.242 95.4563C175.356 103.756 177.455 113.778 177.455 125.591H181.455C181.455 113.312 179.273 102.653 174.826 93.68L171.242 95.4563ZM177.455 125.591C177.455 137.478 175.337 147.596 171.184 156.013L174.771 157.783C179.254 148.699 181.455 137.946 181.455 125.591H177.455ZM171.185 156.01C167.04 164.373 161.027 170.778 153.125 175.273L155.102 178.75C163.715 173.851 170.278 166.846 174.769 157.786L171.185 156.01ZM153.131 175.269C145.239 179.722 135.558 182 124 182V186C136.079 186 146.474 183.618 155.096 178.753L153.131 175.269ZM102.182 173.5H123.091V169.5H102.182V173.5ZM123.091 173.5C132.96 173.5 141.31 171.597 148.024 167.657L145.999 164.207C140.062 167.691 132.464 169.5 123.091 169.5V173.5ZM148.024 167.657C154.715 163.73 159.709 158.127 162.981 150.905L159.337 149.254C156.397 155.745 151.959 160.71 145.999 164.207L148.024 167.657ZM162.981 150.905C166.231 143.732 167.818 135.274 167.818 125.591H163.818C163.818 134.847 162.3 142.715 159.337 149.254L162.981 150.905ZM167.818 125.591C167.818 115.985 166.25 107.603 163.038 100.505L159.394 102.154C162.318 108.617 163.818 116.409 163.818 125.591H167.818ZM163.04 100.509C159.813 93.3377 154.96 87.7878 148.49 83.9299L146.442 87.3655C152.169 90.7804 156.483 95.685 159.392 102.15L163.04 100.509ZM148.498 83.9346C142.013 80.0274 134.037 78.1364 124.682 78.1364V82.1364C133.508 82.1364 140.722 83.9196 146.434 87.3608L148.498 83.9346ZM124.682 78.1364H102.182V82.1364H124.682V78.1364ZM100.182 80.1364V171.5H104.182V80.1364H100.182Z" fill="#64FFDA"/>
</svg>
